<?xml version="1.0" encoding="UTF-8"?>
<svg version="1.1" viewBox="0 0 900 900" width="1280" height="1280" xmlns="http://www.w3.org/2000/svg">
<path transform="translate(684,21)" d="m0 0h14l10 2 8 4 9 7 7 8 5 11 2 9v673l-2 11-6 11-8 9-9 6-17 5h-10l-13-4-11-6-16-15-16-17-71-71-9-16-1-4v-23l8-16 8-9 10-6 5-2 12-2 10 1 13 4 9 6 20 20v-436l-12 11-42 42-5 6-8 7-15 15-7 8-64 64-7 8-7 7-6 7-8 7-43 43-2 3h-2l-1 3-5 5-13 12-20 20-3 4h-2l-2 4-6 9-9 8-12 6-13 2-12-1-8-2-11-7-10-10-4-8-4-16 1-9 2-10 5-9 6-8 6-9 5-6h2l2-4 36-36h2l2-4 147-147 8-9h2l2-4 4-4h2l2-4 145-145 16-8z" fill="#55B65E"/>
<path transform="translate(162,122)" d="m0 0h13l9 2 10 5 11 9 96 96 8 12 3 9v21l-3 9-6 9-5 6-10 7-10 4-6 1h-13l-13-4-11-7-6-5-9-11-5-3-1 436 9-6 8-9 8-7 30-30 6-7h2l2-4 58-58 1-2h2l2-4 25-25h2l1-3 8-7 10-10 7-8 31-31 8-7 14-14 7-8 31-31 8-7 6-5 17-8 8-2h15l12 4 10 7 7 7 5 8 4 15v11l-4 13-5 9-5 6-11 9-354 354-10 6-9 3h-23l-11-4-11-9-6-9-5-11-2-9v-670l3-13 7-12 10-10 14-7z" fill="#F69426"/>
<path transform="translate(684,21)" d="m0 0h14l10 2 8 4 9 7 7 8 5 11 1 3v30l-7 6-4 6-9 10-1 2h-2l-2 4-7 6-20 20-8 7-30 30-1 3-9 7-47 47-5 6-8 7-15 15-7 8-64 64-7 8-7 7-6 7-8 7-43 43-2 3h-2l-1 3-5 5-13 12-20 20-3 4h-2l-2 4-6 9-9 8-12 6-13 2-12-1-8-2-11-7-10-10-4-8-4-16 1-9 2-10 5-9 6-8 6-9 5-6h2l2-4 36-36h2l2-4 147-147 8-9h2l2-4 4-4h2l2-4 145-145 16-8z" fill="#26A791"/>
<path transform="translate(525,425)" d="m0 0h15l12 4 10 7 7 7 5 8 4 15v11l-4 13-5 9-5 6-11 9-354 354-10 6-9 3h-23l-11-4-11-9-6-9-5-11-1-4v-20l4-11 9-11 59-59 7-8 12-12h2v-2l8-6 7-8 8-7 30-30 6-7h2l2-4 58-58 1-2h2l2-4 25-25h2l1-3 8-7 10-10 7-8 31-31 8-7 14-14 7-8 31-31 8-7 6-5 17-8z" fill="#DB262E"/>
<path transform="translate(593,586)" d="m0 0 10 1 13 4 9 6 19 19 3 6v124l-1 2-4-1-9-10-73-73-9-16-1-4v-23l8-16 8-9 10-6 5-2z" fill="#329B52"/>
<path transform="translate(216,161)" d="m0 0 7 3 4 2h3l5 4v2l5 1 61 61 8 12 3 9v21l-3 9-6 9-5 6-10 7-10 4h-8v-2l-11-1-7-1-8-6-12-6-1-2-4-2-2-4-4-4-5-10-1-13v-83l-1-3v-12z" fill="#F78826"/>
<path transform="translate(308,246)" d="m0 0 2 3 2 6v21l-3 9-6 9-5 6-10 7-9 3 2-4 9-6 5-3 4-5 5-10 3-5 1-5-1-6-1-12-1-6h3z" fill="#F69931"/>
<path transform="translate(266,200)" d="m0 0 7 6 28 28 3 4v3l-6-2-10-9-6-6v-2l-4-2v-2l-4-2-4-9-4-5z" fill="#F69F3F"/>
<path transform="translate(253,192)" d="m0 0 3 1 5 6 2 1-1-4 4 3 3 5 2 4h-3l-1-3-5-1v-2h-2v-2h-2v-2h-2z" fill="#F69426"/>
<path transform="translate(295,232)" d="m0 0 5 1 4 5v3l-4-2z" fill="#F79D49"/>
<path transform="translate(266,200)" d="m0 0 7 6 3 4-1 2h-3l-4-8z" fill="#FAC898"/>
<path transform="translate(262,196)" d="m0 0 4 3 3 5 2 4h-3l-1-3-3-1z" fill="#F79B43"/>
</svg>
